<svg xmlns="http://www.w3.org/2000/svg" width="3056" height="3056" viewBox="0 0 3056 3056">
  <defs>
    <style>
      .cls-1 {
        fill-rule: evenodd;
      }
    </style>
  </defs>
  <path id="Color_Fill_1" data-name="Color Fill 1" class="cls-1" d="M1556,1503c17.25,34.24,55.28,98.97,111,99,51.04,0.03,92.6-34.26,113-99,25.83-81.96,6.9-190.84-72-275-205.71-219.44-814.374-350.879-1587,484,632.91-851.482,1342.91-836.181,1640-534,61.16,62.21,99.44,154.07,100,242,1.25,197.58-108.37,259.25-190,258-76.12-1.17-139.19-64.22-169-128m156-191c31.66,0.74,60.73,30.72,61,60,0.3,33.15-24.81,62.18-54,64-38.44,2.39-65.32-33.25-65-59C1600.41,1391.66,1616.16,1363.21,1658,1359Zm-156,191,54-47,0,0-54,47,0,0,54-47-54,47c-17.25-34.24-53.29-98.97-109-99-51.04-.03-92.6,34.26-113,99-25.83,81.96-6.9,190.84,72,275,205.71,219.44,814.37,350.88,1587-484-632.91,851.48-1342.92,836.18-1640,534-61.16-62.21-99.44-154.07-100-242-1.25-197.58,108.37-259.25,190-258,76.12,1.17,137.19,64.22,167,128m-154,191c-31.66-.74-60.73-30.72-61-60-0.3-33.15,24.81-62.18,54-64,38.44-2.39,65.32,33.25,65,59C1459.59,1661.34,1443.84,1689.79,1402,1694Zm154-191-54,47,0,0,54-47,0,0-54,47"/>
</svg>
